{
    "asset" : {
        "generator" : "Khronos glTF Blender I/O v3.4.49",
        "version" : "2.0"
    },
    "scene" : 0,
    "scenes" : [
        {
            "name" : "Scene",
            "nodes" : [
                0
            ]
        }
    ],
    "nodes" : [
        {
            "mesh" : 0,
            "name" : "Line001.001",
            "rotation" : [
                0.70710688829422,
                0,
                0,
                0.7071066498756409
            ],
            "scale" : [
                10,
                10,
                10
            ]
        }
    ],
    "materials" : [
        {
            "doubleSided" : true,
            "name" : "Material.001",
            "pbrMetallicRoughness" : {
                "baseColorFactor" : [
                    0.0301833413541317,
                    0.03243941068649292,
                    0.03212811052799225,
                    0.20000000298023224
                ],
                "metallicFactor" : 0,
                "roughnessFactor" : 0
            }
        },
        {
            "doubleSided" : true,
            "name" : "Material.014",
            "pbrMetallicRoughness" : {
                "baseColorFactor" : [
                    0,
                    0,
                    0,
                    1
                ],
                "metallicFactor" : 0,
                "roughnessFactor" : 0.1651376187801361
            }
        },
        {
            "doubleSided" : true,
            "name" : "Material.015",
            "pbrMetallicRoughness" : {
                "baseColorFactor" : [
                    0.8000000715255737,
                    0.7943294048309326,
                    0.35514959692955017,
                    1
                ],
                "roughnessFactor" : 0
            }
        }
    ],
    "meshes" : [
        {
            "name" : "Mesh.055",
            "primitives" : [
                {
                    "attributes" : {
                        "POSITION" : 0,
                        "TEXCOORD_0" : 1,
                        "NORMAL" : 2
                    },
                    "indices" : 3,
                    "material" : 0
                },
                {
                    "attributes" : {
                        "POSITION" : 4,
                        "TEXCOORD_0" : 5,
                        "NORMAL" : 6
                    },
                    "indices" : 7,
                    "material" : 1
                },
                {
                    "attributes" : {
                        "POSITION" : 8,
                        "TEXCOORD_0" : 9,
                        "NORMAL" : 10
                    },
                    "indices" : 11,
                    "material" : 2
                }
            ]
        }
    ],
    "accessors" : [
        {
            "bufferView" : 0,
            "componentType" : 5126,
            "count" : 3848,
            "max" : [
                0.005302705802023411,
                0.0007325427723117173,
                0.002009129850193858
            ],
            "min" : [
                -0.005302705802023411,
                -0.0002720038464758545,
                -0.0019375431584194303
            ],
            "type" : "VEC3"
        },
        {
            "bufferView" : 1,
            "componentType" : 5126,
            "count" : 3848,
            "type" : "VEC2"
        },
        {
            "bufferView" : 2,
            "componentType" : 5126,
            "count" : 3848,
            "type" : "VEC3"
        },
        {
            "bufferView" : 3,
            "componentType" : 5123,
            "count" : 10872,
            "type" : "SCALAR"
        },
        {
            "bufferView" : 4,
            "componentType" : 5126,
            "count" : 17184,
            "max" : [
                0.006486794911324978,
                0.012592935934662819,
                0.002348707290366292
            ],
            "min" : [
                -0.006513206288218498,
                -0.00040706677827984095,
                -0.0022145186085253954
            ],
            "type" : "VEC3"
        },
        {
            "bufferView" : 5,
            "componentType" : 5126,
            "count" : 17184,
            "type" : "VEC2"
        },
        {
            "bufferView" : 6,
            "componentType" : 5126,
            "count" : 17184,
            "type" : "VEC3"
        },
        {
            "bufferView" : 7,
            "componentType" : 5123,
            "count" : 103092,
            "type" : "SCALAR"
        },
        {
            "bufferView" : 8,
            "componentType" : 5126,
            "count" : 15906,
            "max" : [
                0.006450389511883259,
                0.007969493977725506,
                0.0006372950156219304
            ],
            "min" : [
                -0.006476803217083216,
                -0.00028078019386157393,
                -0.0026512921322137117
            ],
            "type" : "VEC3"
        },
        {
            "bufferView" : 9,
            "componentType" : 5126,
            "count" : 15906,
            "type" : "VEC2"
        },
        {
            "bufferView" : 10,
            "componentType" : 5126,
            "count" : 15906,
            "type" : "VEC3"
        },
        {
            "bufferView" : 11,
            "componentType" : 5123,
            "count" : 79440,
            "type" : "SCALAR"
        }
    ],
    "bufferViews" : [
        {
            "buffer" : 0,
            "byteLength" : 46176,
            "byteOffset" : 0,
            "target" : 34962
        },
        {
            "buffer" : 0,
            "byteLength" : 30784,
            "byteOffset" : 46176,
            "target" : 34962
        },
        {
            "buffer" : 0,
            "byteLength" : 46176,
            "byteOffset" : 76960,
            "target" : 34962
        },
        {
            "buffer" : 0,
            "byteLength" : 21744,
            "byteOffset" : 123136,
            "target" : 34963
        },
        {
            "buffer" : 0,
            "byteLength" : 206208,
            "byteOffset" : 144880,
            "target" : 34962
        },
        {
            "buffer" : 0,
            "byteLength" : 137472,
            "byteOffset" : 351088,
            "target" : 34962
        },
        {
            "buffer" : 0,
            "byteLength" : 206208,
            "byteOffset" : 488560,
            "target" : 34962
        },
        {
            "buffer" : 0,
            "byteLength" : 206184,
            "byteOffset" : 694768,
            "target" : 34963
        },
        {
            "buffer" : 0,
            "byteLength" : 190872,
            "byteOffset" : 900952,
            "target" : 34962
        },
        {
            "buffer" : 0,
            "byteLength" : 127248,
            "byteOffset" : 1091824,
            "target" : 34962
        },
        {
            "buffer" : 0,
            "byteLength" : 190872,
            "byteOffset" : 1219072,
            "target" : 34962
        },
        {
            "buffer" : 0,
            "byteLength" : 158880,
            "byteOffset" : 1409944,
            "target" : 34963
        }
    ],
    "buffers" : [
        {
            "byteLength" : 1568824,
            "uri" : "data:application/octet-stream;base64,"
        }
    ]
}
